<svg xmlns="http://www.w3.org/2000/svg" xmlns:xlink="http://www.w3.org/1999/xlink" version="1.1" x="0px" y="0px" viewBox="0 0 100 125" style="enable-background:new 0 0 100 100;" xml:space="preserve"><g><path d="M0,45.712c0,0,22.068,9.634,22.332,9.098c2.279,0.49,10.512,33.22,13.188,32.517c-0.752,0.762,22.771-15.764,24.676-19.408   c0,0,21.832,9.297,21.53,10.695C82.016,78.061,99.246,12.85,100,12.67C98.279,11.699,1.418,45.785,0,45.712z M11.11,46.488   c7.623-3.012,69.603-24.564,69.775-24.764c1.595,0.195-55.814,30.689-53.943,30.409C26.484,52.398,14.668,48.418,11.11,46.488z    M36.114,78.801c0,0-8.188-22.967-9.116-24.332c0,0,60.887-34.059,61.043-34.473c1.346,0.379-47.036,39.801-45.456,39.256   C42.126,59.862,35.895,80.977,36.114,78.801z M38.155,79.588c0.079-0.48,5.754-18.115,5.754-18.115   c-0.023-0.248,12.05,4.367,12.096,4.236C56.396,65.826,38.486,79.175,38.155,79.588z M80.651,73.531   c-0.063-0.725-36.575-14.145-36.449-14.525c1.083,0.349,49.25-39.822,50.522-40.325C94.36,19.233,80.651,73.531,80.651,73.531z"/></g><text x="0" y="115" fill="#000000" font-size="5px" font-weight="bold" font-family="'Helvetica Neue', Helvetica, Arial-Unicode, Arial, Sans-serif">Created by b farias</text><text x="0" y="120" fill="#000000" font-size="5px" font-weight="bold" font-family="'Helvetica Neue', Helvetica, Arial-Unicode, Arial, Sans-serif">from the Noun Project</text></svg>